<svg width="3008" height="304" viewBox="0 0 3008 304" fill="none" xmlns="http://www.w3.org/2000/svg">
<path d="M234.459 243.23C204.772 243.23 190.266 230.748 184.868 212.868C170.7 234.459 147.422 243.567 124.145 243.567C91.4221 243.567 65.4461 225.35 65.4461 191.615C65.4461 166.651 79.6148 148.097 108.29 137.977C131.904 130.217 154.507 127.856 182.507 127.519V123.133C182.507 102.892 173.398 92.4342 154.507 92.4342C136.29 92.4342 127.181 102.555 124.82 116.723H73.2051C78.6028 75.904 109.976 50.94 156.531 50.94C207.471 50.94 234.122 81.3016 234.122 123.47V191.615C234.122 205.109 239.856 215.23 252.338 215.23C273.929 215.23 288.098 192.627 288.098 145.736C288.098 73.2051 232.097 17.5423 154.844 17.5423C77.2534 17.5423 20.9158 76.2413 20.9158 152.145C20.9158 230.748 76.2413 285.736 154.844 285.736C180.82 285.736 204.097 282.363 225.688 273.254L232.435 290.122C208.82 299.905 183.182 303.616 154.844 303.616C63.422 303.616 0 239.857 0 152.145C0 64.0967 64.7714 0 154.844 0C244.579 0 309.013 61.0605 309.013 144.724C309.013 209.832 280.001 243.23 234.459 243.23ZM116.723 186.892C116.723 199.712 125.832 208.146 141.35 208.146C163.615 208.146 182.507 190.266 182.507 165.977V156.868C130.217 157.88 116.723 170.7 116.723 186.892Z" fill="white"/>
<path d="M361.677 189.254V105.928H339.412V66.7955H361.677V24.6266H413.292V66.7955H450.4V105.928H413.292V182.844C413.292 200.386 418.015 210.17 440.28 210.17H450.063V248.965C444.328 251.664 432.858 253.688 419.027 253.688C380.231 253.688 361.677 231.423 361.677 189.254Z" fill="white"/>
<path d="M489.343 248.29V5.39763H540.958V90.7474C552.765 70.5064 571.32 61.0605 593.585 61.0605C628.332 61.0605 654.308 82.3136 654.308 127.181V248.29H602.693V137.639C602.693 114.699 593.585 102.892 574.693 102.892C554.115 102.892 540.958 120.772 540.958 144.049V248.29H489.343Z" fill="white"/>
<path d="M755.732 126.844H704.117C709.515 86.0245 740.888 61.0605 787.443 61.0605C839.395 61.0605 866.383 91.4221 866.383 133.591V203.085C866.383 226.7 868.407 238.844 871.443 248.29H818.142C816.455 242.218 815.443 234.459 815.106 225.688C800.937 245.254 779.346 253.688 757.756 253.688C723.346 253.688 697.708 236.146 697.708 201.399C697.708 176.772 711.876 157.88 740.551 147.76C764.166 140.001 786.768 137.639 814.768 137.302V133.254C814.768 113.35 804.985 102.892 785.081 102.892C767.539 102.892 758.093 112.675 755.732 126.844ZM749.322 198.025C749.322 210.17 758.431 217.929 773.611 217.929C796.551 217.929 814.768 199.374 814.768 174.41V167.326C762.479 168.338 749.322 181.157 749.322 198.025Z" fill="white"/>
<path d="M925.686 189.254V105.928H903.42V66.7955H925.686V24.6266H977.3V66.7955H1014.41V105.928H977.3V182.844C977.3 200.386 982.023 210.17 1004.29 210.17H1014.07V248.965C1008.34 251.664 996.867 253.688 983.035 253.688C944.24 253.688 925.686 231.423 925.686 189.254Z" fill="white"/>
<path d="M1053.35 248.29V66.7955H1104.97V92.0968C1116.44 70.5064 1133.98 61.0605 1152.53 61.0605C1159.95 61.0605 1166.7 63.0846 1170.41 66.7955V110.314C1164.34 108.964 1157.93 108.29 1149.83 108.29C1118.8 108.29 1104.97 125.832 1104.97 154.507V248.29H1053.35Z" fill="white"/>
<path d="M1374.62 188.579C1365.17 230.411 1331.43 253.688 1286.9 253.688C1230.57 253.688 1195.82 217.254 1195.82 157.543C1195.82 95.8077 1230.9 61.0605 1284.88 61.0605C1339.19 61.0605 1373.27 97.1571 1373.27 156.531V168.001H1248.45C1251.14 197.013 1264.64 212.531 1286.9 212.531C1303.77 212.531 1315.24 205.109 1320.64 188.579H1374.62ZM1284.88 102.217C1265.65 102.217 1253.51 114.699 1249.46 138.314H1319.96C1315.92 114.699 1303.77 102.217 1284.88 102.217Z" fill="white"/>
<path d="M1469 248.29H1417.39V5.39763H1469V85.3498C1480.14 69.4943 1495.65 61.0605 1514.54 61.0605C1561.44 61.0605 1590.45 97.8318 1590.45 157.206C1590.45 218.941 1560.76 253.688 1514.54 253.688C1495.32 253.688 1479.8 245.591 1469 230.411V248.29ZM1503.41 102.892C1480.81 102.892 1469 122.121 1469 157.206C1469 192.29 1481.15 211.856 1503.41 211.856C1525.68 211.856 1537.82 192.627 1537.82 157.206C1537.82 122.121 1525.68 102.892 1503.41 102.892Z" fill="white"/>
<path d="M1804.54 188.579C1795.09 230.411 1761.36 253.688 1716.83 253.688C1660.49 253.688 1625.74 217.254 1625.74 157.543C1625.74 95.8077 1660.83 61.0605 1714.8 61.0605C1769.12 61.0605 1803.19 97.1571 1803.19 156.531V168.001H1678.37C1681.07 197.013 1694.56 212.531 1716.83 212.531C1733.7 212.531 1745.17 205.109 1750.56 188.579H1804.54ZM1714.8 102.217C1695.58 102.217 1683.43 114.699 1679.38 138.314H1749.89C1745.84 114.699 1733.7 102.217 1714.8 102.217Z" fill="white"/>
<path d="M2009.24 132.242H1957.63C1954.25 110.988 1942.11 102.892 1927.26 102.892C1904.32 102.892 1892.52 122.121 1892.52 157.543C1892.52 192.627 1905 211.856 1928.61 211.856C1944.13 211.856 1954.93 203.085 1958.64 186.218H2010.25C2002.49 231.76 1969.77 253.688 1927.6 253.688C1873.29 253.688 1839.55 216.917 1839.55 157.543C1839.55 95.8077 1873.96 61.0605 1927.26 61.0605C1969.43 61.0605 2002.83 84.6751 2009.24 132.242Z" fill="white"/>
<path d="M2214.16 132.242H2162.54C2159.17 110.988 2147.02 102.892 2132.18 102.892C2109.24 102.892 2097.43 122.121 2097.43 157.543C2097.43 192.627 2109.91 211.856 2133.53 211.856C2149.05 211.856 2159.84 203.085 2163.55 186.218H2215.17C2207.41 231.76 2174.69 253.688 2132.52 253.688C2078.2 253.688 2044.47 216.917 2044.47 157.543C2044.47 95.8077 2078.88 61.0605 2132.18 61.0605C2174.35 61.0605 2207.75 84.6751 2214.16 132.242Z" fill="white"/>
<path d="M2307.74 126.844H2256.13C2261.53 86.0245 2292.9 61.0605 2339.45 61.0605C2391.41 61.0605 2418.39 91.4221 2418.39 133.591V203.085C2418.39 226.7 2420.42 238.844 2423.45 248.29H2370.15C2368.47 242.218 2367.45 234.459 2367.12 225.688C2352.95 245.254 2331.36 253.688 2309.77 253.688C2275.36 253.688 2249.72 236.146 2249.72 201.399C2249.72 176.772 2263.89 157.88 2292.56 147.76C2316.18 140.001 2338.78 137.639 2366.78 137.302V133.254C2366.78 113.35 2357 102.892 2337.09 102.892C2319.55 102.892 2310.11 112.675 2307.74 126.844ZM2301.33 198.025C2301.33 210.17 2310.44 217.929 2325.62 217.929C2348.56 217.929 2366.78 199.374 2366.78 174.41V167.326C2314.49 168.338 2301.33 181.157 2301.33 198.025Z" fill="white"/>
<path d="M2470.95 248.29V66.7955H2522.57V92.0968C2534.04 70.5064 2551.58 61.0605 2570.13 61.0605C2577.55 61.0605 2584.3 63.0846 2588.01 66.7955V110.314C2581.94 108.964 2575.53 108.29 2567.43 108.29C2536.4 108.29 2522.57 125.832 2522.57 154.507V248.29H2470.95Z" fill="white"/>
<path d="M2673.76 126.844H2622.14C2627.54 86.0245 2658.91 61.0605 2705.47 61.0605C2757.42 61.0605 2784.41 91.4221 2784.41 133.591V203.085C2784.41 226.7 2786.43 238.844 2789.47 248.29H2736.17C2734.48 242.218 2733.47 234.459 2733.13 225.688C2718.96 245.254 2697.37 253.688 2675.78 253.688C2641.37 253.688 2615.73 236.146 2615.73 201.399C2615.73 176.772 2629.9 157.88 2658.58 147.76C2682.19 140.001 2704.79 137.639 2732.79 137.302V133.254C2732.79 113.35 2723.01 102.892 2703.11 102.892C2685.56 102.892 2676.12 112.675 2673.76 126.844ZM2667.35 198.025C2667.35 210.17 2676.45 217.929 2691.64 217.929C2714.58 217.929 2732.79 199.374 2732.79 174.41V167.326C2680.5 168.338 2667.35 181.157 2667.35 198.025Z" fill="white"/>
<path d="M3008 188.579C2998.55 230.411 2964.82 253.688 2920.29 253.688C2863.95 253.688 2829.2 217.254 2829.2 157.543C2829.2 95.8077 2864.29 61.0605 2918.26 61.0605C2972.58 61.0605 3006.65 97.1571 3006.65 156.531V168.001H2881.83C2884.53 197.013 2898.02 212.531 2920.29 212.531C2937.16 212.531 2948.63 205.109 2954.02 188.579H3008ZM2918.26 102.217C2899.04 102.217 2886.89 114.699 2882.84 138.314H2953.35C2949.3 114.699 2937.16 102.217 2918.26 102.217Z" fill="white"/>
</svg>
